<svg width="60" height="60" viewBox="0 0 60 60" fill="none" xmlns="http://www.w3.org/2000/svg">
<path d="M30.4185 52.9804C28.8049 52.9996 27.1937 52.8488 25.6117 52.5304C25.4851 52.7218 25.3146 52.8802 25.1142 52.9922C24.9139 53.1042 24.6896 53.1666 24.4602 53.1741C24.0811 53.1885 23.7118 53.0519 23.4334 52.7942C23.155 52.5366 22.9902 52.179 22.9752 51.8C22.9752 51.8 22.9752 51.8001 22.9752 51.7957C21.2969 51.2028 19.7236 50.347 18.314 49.2602C18.2278 49.2866 18.1384 49.3015 18.0482 49.3046C17.7792 49.314 17.5174 49.2168 17.3198 49.034C17.1222 48.8512 17.005 48.5977 16.9936 48.3288C16.9913 48.2628 16.9955 48.1967 17.006 48.1314C15.8597 47.0387 14.8882 45.7764 14.1255 44.3886C13.8489 44.3805 13.5857 44.2678 13.389 44.0732C13.1923 43.8785 13.0768 43.6165 13.0659 43.34C13.0565 43.0837 13.1389 42.8325 13.2982 42.6315C12.6185 40.8827 12.2055 39.0417 12.0732 37.1701C11.7806 37.0894 11.5214 36.9175 11.3332 36.6794C11.145 36.4414 11.0376 36.1495 11.0266 35.8463C11.0164 35.5368 11.1072 35.2324 11.2854 34.9791C11.4636 34.7258 11.7194 34.5374 12.0142 34.4424C12.1138 32.0355 12.4554 29.6447 13.0338 27.3062C12.6764 29.6449 12.5347 32.0115 12.6107 34.3761C12.9541 34.4103 13.2737 34.5676 13.5102 34.819C13.7467 35.0703 13.8843 35.3988 13.8976 35.7436C13.9093 36.0631 13.8134 36.3772 13.6252 36.6356C13.437 36.894 13.1674 37.0818 12.8597 37.1687C13.0941 38.9023 13.5491 40.5989 14.2137 42.2171C14.4877 42.2288 14.7474 42.3432 14.941 42.5375C15.1346 42.7317 15.2481 42.9917 15.2588 43.2657C15.2675 43.5073 15.1946 43.7449 15.052 43.94C15.7515 45.1937 16.624 46.3427 17.644 47.353C17.7506 47.312 17.8634 47.2891 17.9776 47.2853C18.2466 47.2758 18.5084 47.3731 18.706 47.5559C18.9035 47.7387 19.0208 47.9922 19.0322 48.2611C19.0357 48.3572 19.0254 48.4533 19.0016 48.5465C20.2902 49.5413 21.7121 50.3502 23.2258 50.9495C23.3534 50.7646 23.5225 50.6123 23.7197 50.5047C23.9169 50.397 24.1366 50.3372 24.3612 50.3299C24.7403 50.3153 25.1098 50.4518 25.3882 50.7095C25.6667 50.9672 25.8314 51.3248 25.8462 51.7039C25.8462 51.7381 25.8462 51.7731 25.8462 51.8066C27.3375 52.187 28.8595 52.4343 30.3945 52.5457C30.4335 52.3376 30.5424 52.149 30.7032 52.0112C30.864 51.8733 31.067 51.7945 31.2787 51.7876C31.515 51.7787 31.7459 51.8602 31.9243 52.0155C32.1026 52.1708 32.215 52.3883 32.2386 52.6236C33.1535 52.6403 34.0686 52.5996 34.9785 52.502C34.0708 52.7009 33.1501 52.8342 32.2233 52.9011C32.1796 53.1041 32.0693 53.2866 31.9099 53.4196C31.7504 53.5526 31.551 53.6285 31.3435 53.6351H31.3107C31.1115 53.6357 30.9174 53.5724 30.7569 53.4545C30.5963 53.3367 30.4777 53.1705 30.4185 52.9804ZM32.9676 16.0026C35.7905 16.4805 38.4712 17.5818 40.8146 19.2264C43.158 20.8709 45.1051 23.0172 46.5142 25.5091C52.2124 35.4968 47.1696 47.4215 37.4598 51.7862C37.4642 51.7869 28.3356 43.1063 32.9669 16.0034L32.9676 16.0026ZM35.0069 51.3726C34.9683 51.3726 33.2873 50.4835 30.5788 48.8924C24.1762 45.1321 20.0911 42.0118 16.8982 38.1685C15.6682 36.6201 14.7786 34.8299 14.2876 32.9145C13.7965 30.9992 13.715 29.0018 14.0483 27.0528C14.787 24.2883 16.3183 21.8001 18.4535 19.8947C20.5887 17.9892 23.2346 16.7498 26.0654 16.3289L21.3314 19.8314L23.2826 24.7474L26.2206 22.2461C28.4659 46.5091 35.012 51.3733 35.012 51.3733L35.0069 51.3726ZM33.197 14.745L33.9836 10.5136L30.5045 13.1103C30.2362 12.755 30.0263 12.3592 29.8825 11.9379C29.7339 11.5018 29.6583 11.0442 29.6589 10.5835C29.6589 10.2978 29.688 10.0128 29.7456 9.73297C29.8016 9.46133 29.8846 9.19593 29.9932 8.9407C30.1003 8.68975 30.2315 8.44982 30.385 8.22421C30.5378 7.99989 30.7117 7.79065 30.9043 7.5994C31.0972 7.40796 31.3079 7.23532 31.5336 7.08384C31.7613 6.93125 32.0033 6.80103 32.2561 6.695C32.5144 6.58685 32.7827 6.5044 33.0572 6.44886C33.3378 6.39329 33.6233 6.36575 33.9093 6.3666C34.1972 6.36661 34.4844 6.39538 34.7665 6.45251C35.041 6.50805 35.3094 6.5905 35.5677 6.69864C35.8205 6.80469 36.0624 6.93491 36.2902 7.08749C36.5158 7.23895 36.7265 7.41158 36.9194 7.60305C37.112 7.79428 37.2859 8.00351 37.4387 8.22785C37.5922 8.45342 37.7235 8.69336 37.8305 8.94434C37.9392 9.19954 38.0222 9.46495 38.0782 9.73661C38.1358 10.0165 38.1648 10.3014 38.1648 10.5872C38.1648 10.8729 38.1358 11.1578 38.0782 11.4376C38.0222 11.7093 37.9392 11.9747 37.8305 12.2299C37.7235 12.4809 37.5922 12.7209 37.4387 12.9465C37.2859 13.1708 37.112 13.38 36.9194 13.5712C36.7265 13.7627 36.5158 13.9353 36.2902 14.0868C36.0624 14.2393 35.8204 14.3695 35.5677 14.4756C35.3094 14.5838 35.041 14.6662 34.7665 14.7218C34.4844 14.7789 34.1972 14.8076 33.9093 14.8077C33.6702 14.8075 33.4314 14.7876 33.1956 14.748L33.197 14.745Z" fill="url(#paint0_linear_7_1442)"/>
<defs>
<linearGradient id="paint0_linear_7_1442" x1="11.0258" y1="29.5281" x2="48.9099" y2="29.4674" gradientUnits="userSpaceOnUse">
<stop stop-color="#4FA375"/>
<stop offset="1" stop-color="#2087A2"/>
</linearGradient>
</defs>
</svg>
