<svg width="153" height="48" viewBox="0 0 153 48" fill="none" xmlns="http://www.w3.org/2000/svg">
<path d="M23.9942 11.6253C23.6562 11.6253 23.3648 11.5088 23.12 11.2756C22.8869 11.0309 22.7703 10.7453 22.7703 10.4189C22.7703 10.0926 22.8927 9.81284 23.1375 9.57973C23.3823 9.33495 23.6678 9.21257 23.9942 9.21257C24.3205 9.21257 24.6003 9.33495 24.8334 9.57973C25.0782 9.81284 25.2006 10.0926 25.2006 10.4189C25.2006 10.7453 25.084 11.0309 24.8509 11.2756C24.6178 11.5088 24.3322 11.6253 23.9942 11.6253ZM27.4385 11.6253C27.1004 11.6253 26.8091 11.5088 26.5643 11.2756C26.3312 11.0309 26.2146 10.7453 26.2146 10.4189C26.2146 10.0926 26.337 9.81284 26.5818 9.57973C26.8265 9.33495 27.1121 9.21257 27.4385 9.21257C27.7648 9.21257 28.0446 9.33495 28.2777 9.57973C28.5225 9.81284 28.6448 10.0926 28.6448 10.4189C28.6448 10.7453 28.5225 11.0309 28.2777 11.2756C28.0446 11.5088 27.7648 11.6253 27.4385 11.6253ZM34.4494 17.9894V20H33.5403C33.1556 20 32.7826 19.9126 32.4213 19.7377C32.0716 19.5629 31.7569 19.324 31.4772 19.0209C30.9061 19.6736 30.1135 20 29.0994 20H22.9976C22.2866 20 21.6455 19.8368 21.0744 19.5105C20.5033 19.1841 20.0487 18.7353 19.7107 18.1642C19.3843 17.5814 19.2211 16.9345 19.2211 16.2235V13.5835H21.2318V16.2235C21.2318 16.748 21.3949 17.1735 21.7213 17.4998C22.0477 17.8262 22.4731 17.9894 22.9976 17.9894H29.1169C30.0144 17.9894 30.4631 17.5115 30.4631 16.5557V11.7302H32.4738V16.5557C32.4738 17.5115 32.9225 17.9894 33.82 17.9894H34.4494ZM39.2805 9.64966C38.9425 9.638 38.6569 9.51562 38.4238 9.2825C38.1907 9.03773 38.0741 8.75217 38.0741 8.4258C38.0741 8.09944 38.1907 7.8197 38.4238 7.58659C38.6686 7.35347 38.96 7.23108 39.298 7.21943C39.6244 7.21943 39.9041 7.34181 40.1372 7.58659C40.382 7.8197 40.5044 8.09944 40.5044 8.4258C40.5044 8.75217 40.382 9.03773 40.1372 9.2825C39.9041 9.52727 39.6185 9.64966 39.2805 9.64966ZM39.3505 11.0658C40.0615 11.0658 40.7084 11.2348 41.2911 11.5729C41.8739 11.9109 42.3343 12.3771 42.6724 12.9716C43.0104 13.5543 43.1794 14.2012 43.1794 14.9122V16.4333C43.1794 17.0744 43.0162 17.6688 42.6898 18.2167C42.3751 18.7645 41.9439 19.2016 41.396 19.5279C40.8482 19.8426 40.2538 20 39.6127 20H34.2977L33.4235 19.6678V18.3041L34.2977 17.9719H36.046C35.8246 17.7388 35.6497 17.4649 35.5215 17.1502C35.3933 16.8238 35.3292 16.4858 35.3292 16.1361V14.9122C35.3292 14.2012 35.4982 13.5543 35.8362 12.9716C36.1743 12.3771 36.6347 11.9109 37.2174 11.5729C37.8002 11.2348 38.4471 11.0658 39.1581 11.0658H39.3505ZM41.1688 14.9122C41.1688 14.3761 40.9939 13.939 40.6442 13.601C40.3062 13.263 39.875 13.0939 39.3505 13.0939H39.1581C38.6336 13.0939 38.2024 13.263 37.8643 13.601C37.5263 13.939 37.3573 14.3761 37.3573 14.9122V16.1361C37.3573 16.6373 37.5263 17.0686 37.8643 17.4299C38.2024 17.7912 38.5987 17.9719 39.0532 17.9719H39.4204C39.8983 17.9719 40.3062 17.8029 40.6442 17.4649C40.9939 17.1268 41.1688 16.7189 41.1688 16.241V14.9122ZM53.7995 20H52.8729V20.7868C52.8729 21.7775 52.5173 22.5701 51.8063 23.1645C51.0953 23.759 50.0871 24.0562 48.7817 24.0562C48.059 24.0562 47.2431 23.9513 46.334 23.7415V21.8708C47.1615 22.0106 47.8492 22.0806 48.397 22.0806C49.2712 22.0806 49.9006 21.9232 50.2853 21.6085C50.6699 21.3054 50.8622 20.8684 50.8622 20.2972V19.9825H48.7467C48.0707 19.9825 47.4471 19.8077 46.8759 19.458C46.3165 19.1083 45.8677 18.6421 45.5297 18.0593C45.2033 17.4649 45.0402 16.8238 45.0402 16.1361V14.8948C45.0402 14.1721 45.2033 13.5194 45.5297 12.9366C45.8677 12.3538 46.3281 11.8992 46.9109 11.5729C47.4937 11.2348 48.1464 11.0658 48.8691 11.0658H49.0614C49.7841 11.0658 50.431 11.2348 51.0021 11.5729C51.5849 11.8992 52.0395 12.3538 52.3658 12.9366C52.7038 13.5194 52.8729 14.1721 52.8729 14.8948V17.9894H53.7995V20ZM50.8622 17.9719V14.8948C50.8622 14.3586 50.6932 13.9215 50.3552 13.5835C50.0288 13.2455 49.5976 13.0765 49.0614 13.0765H48.8691C48.3329 13.0765 47.8958 13.2455 47.5578 13.5835C47.2198 13.9215 47.0508 14.3586 47.0508 14.8948V16.1361C47.0508 16.6373 47.2198 17.0686 47.5578 17.4299C47.9075 17.7912 48.3096 17.9719 48.7642 17.9719H50.8622ZM67.1036 16.6956C67.1036 17.29 66.9521 17.8437 66.649 18.3565C66.3576 18.8577 65.9555 19.2599 65.4427 19.5629C64.9415 19.8543 64.3936 20 63.7992 20C62.7735 20 61.9692 19.6911 61.3864 19.0734C61.0834 19.3881 60.7162 19.627 60.285 19.7902C59.8654 19.9534 59.4283 20.035 58.9737 20.035C58.0645 20.035 57.3069 19.7203 56.7008 19.0908C56.4211 19.3706 56.0889 19.592 55.7043 19.7552C55.3313 19.9184 54.9233 20 54.4804 20H53.6936V17.9894H54.5328C54.8709 17.9894 55.1506 17.8786 55.3721 17.6572C55.6052 17.4357 55.7217 17.1502 55.7217 16.8005V13.0065H57.7149V16.8005C57.7149 17.1968 57.8314 17.4998 58.0645 17.7096C58.2977 17.9194 58.6299 18.0243 59.0611 18.0243C59.4574 18.0243 59.778 17.9136 60.0227 17.6922C60.2675 17.4707 60.3899 17.1735 60.3899 16.8005V13.0065H62.4005V16.8005C62.4005 17.1735 62.5229 17.4649 62.7677 17.6747C63.0124 17.8845 63.3563 17.9894 63.7992 17.9894C64.1605 17.9894 64.4636 17.867 64.7083 17.6222C64.9531 17.3658 65.0755 17.0569 65.0755 16.6956V11.2232H67.1036V16.6956ZM52.802 19.6853V18.3041L53.6761 17.9894V20L52.802 19.6853ZM79.9353 9.64966C79.6089 9.64966 79.3233 9.5331 79.0786 9.29999C78.8454 9.05522 78.7289 8.76965 78.7289 8.44329C78.7289 8.11692 78.8454 7.83719 79.0786 7.60407C79.3233 7.3593 79.6089 7.23691 79.9353 7.23691C80.2616 7.23691 80.5472 7.3593 80.792 7.60407C81.0367 7.83719 81.1591 8.11692 81.1591 8.44329C81.1591 8.76965 81.0367 9.05522 80.792 9.29999C80.5588 9.5331 80.2733 9.64966 79.9353 9.64966ZM83.3796 9.64966C83.0532 9.64966 82.7676 9.5331 82.5229 9.29999C82.2897 9.05522 82.1732 8.76965 82.1732 8.44329C82.1732 8.11692 82.2897 7.83719 82.5229 7.60407C82.7676 7.3593 83.0532 7.23691 83.3796 7.23691C83.7059 7.23691 83.9857 7.3593 84.2188 7.60407C84.4635 7.83719 84.5859 8.11692 84.5859 8.44329C84.5859 8.76965 84.4694 9.05522 84.2363 9.29999C84.0031 9.5331 83.7176 9.64966 83.3796 9.64966ZM81.7011 10.6287C82.4005 10.6287 83.0299 10.7919 83.5894 11.1183C84.1605 11.4447 84.6092 11.8934 84.9356 12.4645C85.262 13.024 85.4251 13.6534 85.4251 14.3528V18.4265C85.4251 19.6154 85.1512 20.6877 84.6034 21.6435C84.0672 22.5992 83.3213 23.3452 82.3655 23.8814C81.4214 24.4292 80.3549 24.7031 79.166 24.7031H79.1135C77.9363 24.7031 76.8698 24.4292 75.914 23.8814C74.9582 23.3452 74.2064 22.5992 73.6586 21.6435C73.1225 20.6877 72.8544 19.6154 72.8544 18.4265V16.4858H74.8825V18.4265C74.8825 19.2424 75.0631 19.9709 75.4245 20.6119C75.7858 21.2647 76.287 21.7717 76.9281 22.133C77.5691 22.4943 78.2976 22.675 79.1135 22.675H79.166C80.2033 22.675 81.0892 22.3894 81.8235 21.8183C82.5695 21.2472 83.0532 20.4837 83.2746 19.5279H81.4389C80.7395 19.5279 80.1043 19.3648 79.5331 19.0384C78.962 18.712 78.5133 18.2691 78.1869 17.7096C77.8605 17.1385 77.6974 16.5033 77.6974 15.8039V14.3528C77.6974 13.6534 77.8605 13.024 78.1869 12.4645C78.5133 11.8934 78.962 11.4447 79.5331 11.1183C80.1043 10.7919 80.7395 10.6287 81.4389 10.6287H81.7011ZM83.4145 16.8355V14.3528C83.4145 13.8399 83.2572 13.4261 82.9425 13.1114C82.6278 12.7967 82.214 12.6394 81.7011 12.6394H81.4389C80.926 12.6394 80.5064 12.8026 80.18 13.1289C79.8653 13.4436 79.708 13.8516 79.708 14.3528V15.8039C79.708 16.3051 79.8653 16.7189 80.18 17.0453C80.5064 17.36 80.926 17.5173 81.4389 17.5173H83.397V16.8355H83.4145ZM87.7339 20V7.83136H89.7446V20H87.7339ZM96.6088 20H95.0353V20.2098C95.0353 20.9208 94.8663 21.5619 94.5283 22.133C94.2019 22.7041 93.7532 23.1529 93.182 23.4793C92.6109 23.8173 91.9698 23.9863 91.2588 23.9863H90.3846V21.9757H91.2588C91.7717 21.9757 92.1913 21.8125 92.5176 21.4861C92.844 21.1598 93.0072 20.7343 93.0072 20.2098V11.5729H95.0353V17.9894H96.6088V20ZM104.98 17.9894V20H96.3951L95.5209 19.6678V18.3041L96.3951 17.9894H98.2658C97.6597 17.3133 97.3567 16.445 97.3567 15.3843C97.3567 14.3469 97.5606 13.4786 97.9686 12.7792C98.3765 12.0799 98.9185 11.567 99.5946 11.2407C100.282 10.9027 101.04 10.7336 101.867 10.7336C102.637 10.7336 103.423 10.8793 104.228 11.1707V13.024C103.563 12.7676 102.916 12.6394 102.287 12.6394C101.471 12.6394 100.818 12.8783 100.329 13.3562C99.8393 13.8224 99.5946 14.5218 99.5946 15.4542C99.5946 16.375 99.8335 17.0278 100.311 17.4124C100.789 17.7971 101.454 17.9894 102.305 17.9894H104.98Z" fill="white"/>
<path d="M8.35818 41H8.08818C7.80818 41 7.55485 40.9367 7.32818 40.81C7.10818 40.6767 6.94151 40.5 6.82818 40.28C6.66151 40.5533 6.43151 40.77 6.13818 40.93C5.85151 41.0833 5.53151 41.16 5.17818 41.16C4.77151 41.16 4.42151 41.1033 4.12818 40.99C3.83485 40.87 3.57485 40.6867 3.34818 40.44C3.04818 40.4533 2.81151 40.55 2.63818 40.73C2.47151 40.91 2.38818 41.1433 2.38818 41.43V43.59H1.60818V41.43C1.60818 40.97 1.74818 40.58 2.02818 40.26C2.30818 39.94 2.66818 39.7533 3.10818 39.7V38.02C3.10818 37.6267 3.19818 37.2733 3.37818 36.96C3.55818 36.6467 3.80485 36.4 4.11818 36.22C4.43151 36.04 4.78485 35.95 5.17818 35.95C5.57151 35.95 5.92485 36.04 6.23818 36.22C6.55151 36.4 6.79818 36.6467 6.97818 36.96C7.15818 37.2733 7.24818 37.6267 7.24818 38.02V39.37C7.24818 39.6167 7.32485 39.82 7.47818 39.98C7.63818 40.14 7.84151 40.22 8.08818 40.22H8.35818V41ZM5.17818 40.38C5.55818 40.38 5.86818 40.26 6.10818 40.02C6.34818 39.78 6.46818 39.47 6.46818 39.09V38.02C6.46818 37.64 6.34818 37.33 6.10818 37.09C5.86818 36.85 5.55818 36.73 5.17818 36.73C4.79818 36.73 4.48818 36.85 4.24818 37.09C4.00818 37.33 3.88818 37.64 3.88818 38.02V39.88C4.04151 40.06 4.21485 40.19 4.40818 40.27C4.60818 40.3433 4.86485 40.38 5.17818 40.38ZM12.1985 40.22V41H11.4085C11.1885 41 10.9818 40.95 10.7885 40.85C10.6018 40.75 10.4385 40.6133 10.2985 40.44C10.0252 40.8133 9.63182 41 9.11849 41H8.30849L7.96849 40.87V40.35L8.30849 40.22H9.12849C9.38849 40.22 9.58516 40.1467 9.71849 40C9.85182 39.8467 9.92182 39.6467 9.92849 39.4L9.91849 36.27H10.6985V39.38C10.6985 39.6267 10.7652 39.83 10.8985 39.99C11.0385 40.1433 11.2418 40.22 11.5085 40.22H12.1985ZM9.37849 41.92C9.51849 41.92 9.63516 41.97 9.72849 42.07C9.82849 42.17 9.87849 42.2867 9.87849 42.42C9.87849 42.56 9.82849 42.68 9.72849 42.78C9.63516 42.88 9.51849 42.93 9.37849 42.93C9.24516 42.93 9.12849 42.88 9.02849 42.78C8.92849 42.68 8.87849 42.56 8.87849 42.42C8.87849 42.2867 8.92849 42.17 9.02849 42.07C9.12849 41.97 9.24516 41.92 9.37849 41.92ZM10.9985 41.92C11.1318 41.92 11.2485 41.97 11.3485 42.07C11.4485 42.17 11.4985 42.2867 11.4985 42.42C11.4985 42.56 11.4485 42.68 11.3485 42.78C11.2485 42.88 11.1318 42.93 10.9985 42.93C10.8652 42.93 10.7485 42.88 10.6485 42.78C10.5485 42.68 10.4985 42.56 10.4985 42.42C10.4985 42.2867 10.5485 42.17 10.6485 42.07C10.7485 41.97 10.8652 41.92 10.9985 41.92ZM18.688 41H18.358C18.0514 41 17.778 40.9267 17.538 40.78C17.3047 40.6267 17.1314 40.4233 17.018 40.17C16.8514 40.41 16.6347 40.6033 16.368 40.75C16.108 40.89 15.828 40.96 15.528 40.96C15.1947 40.96 14.878 40.9 14.578 40.78C14.278 40.66 14.018 40.4867 13.798 40.26C13.6714 40.4867 13.4914 40.6667 13.258 40.8C13.0314 40.9333 12.7747 41 12.488 41H12.088L11.748 40.87V40.35L12.088 40.22H12.488C12.7414 40.22 12.9447 40.14 13.098 39.98C13.258 39.82 13.338 39.6133 13.338 39.36V37.99C13.338 37.61 13.4247 37.2667 13.598 36.96C13.778 36.6467 14.0214 36.4033 14.328 36.23C14.6414 36.05 14.988 35.96 15.368 35.96H15.468C15.8547 35.96 16.2014 36.05 16.508 36.23C16.8147 36.4033 17.0547 36.6467 17.228 36.96C17.408 37.2667 17.498 37.61 17.498 37.99V39.36C17.498 39.6133 17.578 39.82 17.738 39.98C17.898 40.14 18.1047 40.22 18.358 40.22H18.688V41ZM15.528 40.18C15.7414 40.18 15.938 40.1233 16.118 40.01C16.3047 39.8967 16.4514 39.7467 16.558 39.56C16.6714 39.3667 16.728 39.1567 16.728 38.93V37.99C16.728 37.6233 16.608 37.3233 16.368 37.09C16.1347 36.8567 15.8347 36.74 15.468 36.74H15.368C15.0014 36.74 14.7014 36.8567 14.468 37.09C14.2347 37.3233 14.118 37.6233 14.118 37.99V39.5C14.2714 39.7133 14.4714 39.88 14.718 40C14.9647 40.12 15.2347 40.18 15.528 40.18ZM26.1122 40.22V41H18.5822L18.2522 40.87V40.35L18.5822 40.22H19.4022V36.6H20.1722V37.86C21.1988 36.68 22.1722 36.09 23.0922 36.09C23.8788 36.09 24.4688 36.31 24.8622 36.75C25.2555 37.1833 25.4522 37.8833 25.4522 38.85V40.22H26.1122ZM24.6922 38.85C24.6922 38.1433 24.5488 37.6367 24.2622 37.33C23.9755 37.0167 23.5655 36.86 23.0322 36.86C22.5722 36.86 22.0988 37.0167 21.6122 37.33C21.1255 37.6367 20.6455 38.0667 20.1722 38.62V40.22H24.6922V38.85ZM27.2131 35.41C27.0798 35.41 26.9631 35.3633 26.8631 35.27C26.7631 35.17 26.7131 35.05 26.7131 34.91C26.7131 34.7767 26.7631 34.66 26.8631 34.56C26.9631 34.46 27.0798 34.41 27.2131 34.41C27.3531 34.41 27.4698 34.46 27.5631 34.56C27.6631 34.66 27.7131 34.7767 27.7131 34.91C27.7131 35.05 27.6631 35.17 27.5631 35.27C27.4698 35.3633 27.3531 35.41 27.2131 35.41ZM28.8431 35.41C28.7031 35.41 28.5831 35.3633 28.4831 35.27C28.3831 35.17 28.3331 35.05 28.3331 34.91C28.3331 34.7767 28.3831 34.66 28.4831 34.56C28.5831 34.46 28.7031 34.41 28.8431 34.41C28.9764 34.41 29.0931 34.46 29.1931 34.56C29.2931 34.66 29.3431 34.7767 29.3431 34.91C29.3431 35.05 29.2931 35.17 29.1931 35.27C29.0931 35.3633 28.9764 35.41 28.8431 35.41ZM30.0931 40.22V41H29.1031C28.8898 41 28.6864 40.95 28.4931 40.85C28.3064 40.75 28.1431 40.6133 28.0031 40.44C27.7231 40.8133 27.3264 41 26.8131 41H26.0331L25.6931 40.87V40.35L26.0331 40.22H26.8231C27.0898 40.22 27.2898 40.1433 27.4231 39.99C27.5564 39.8367 27.6231 39.6333 27.6231 39.38V36.27H28.4031V39.12C28.4031 39.22 28.3998 39.2967 28.3931 39.35V39.38C28.3931 39.6267 28.4598 39.83 28.5931 39.99C28.7331 40.1433 28.9364 40.22 29.2031 40.22H30.0931ZM31.9177 34.04V39.97C31.9177 40.2633 31.8177 40.51 31.6177 40.71C31.4244 40.9033 31.181 41 30.8877 41H30.0177L29.6877 40.87V40.35L30.0177 40.22H30.6677C30.7944 40.22 30.9044 40.1767 30.9977 40.09C31.091 40.0033 31.1377 39.8833 31.1377 39.73V34.04H31.9177ZM33.3458 41V34.04H34.1258V41H33.3458ZM37.5801 35.96C37.9667 35.96 38.3134 36.05 38.6201 36.23C38.9267 36.4033 39.1667 36.6467 39.3401 36.96C39.5201 37.2733 39.6101 37.62 39.6101 38V41.45C39.6101 42.0233 39.4234 42.46 39.0501 42.76C38.6767 43.0667 38.1267 43.22 37.4001 43.22C37.0801 43.22 36.6934 43.1833 36.2401 43.11V42.38C36.6534 42.4333 36.9967 42.46 37.2701 42.46C37.8301 42.46 38.2301 42.3633 38.4701 42.17C38.7101 41.9833 38.8301 41.69 38.8301 41.29V40.99H37.4001C37.0467 40.99 36.7201 40.8967 36.4201 40.71C36.1201 40.5233 35.8834 40.2767 35.7101 39.97C35.5367 39.6567 35.4501 39.32 35.4501 38.96V38C35.4501 37.62 35.5367 37.2733 35.7101 36.96C35.8901 36.6467 36.1334 36.4033 36.4401 36.23C36.7467 36.05 37.0934 35.96 37.4801 35.96H37.5801ZM38.8301 38C38.8301 37.6333 38.7134 37.3333 38.4801 37.1C38.2467 36.86 37.9467 36.74 37.5801 36.74H37.4801C37.1134 36.74 36.8134 36.8567 36.5801 37.09C36.3467 37.3233 36.2301 37.6267 36.2301 38V38.96C36.2301 39.1867 36.2834 39.3967 36.3901 39.59C36.4967 39.7767 36.6401 39.9267 36.8201 40.04C37.0067 40.1533 37.2067 40.21 37.4201 40.21H38.8301V38ZM44.2829 35.01C44.1495 35.01 44.0329 34.96 43.9329 34.86C43.8329 34.76 43.7829 34.64 43.7829 34.5C43.7829 34.3667 43.8329 34.25 43.9329 34.15C44.0329 34.05 44.1495 34 44.2829 34C44.4229 34 44.5395 34.05 44.6329 34.15C44.7329 34.25 44.7829 34.3667 44.7829 34.5C44.7829 34.64 44.7329 34.76 44.6329 34.86C44.5395 34.96 44.4229 35.01 44.2829 35.01ZM45.9129 35.01C45.7729 35.01 45.6529 34.96 45.5529 34.86C45.4529 34.76 45.4029 34.64 45.4029 34.5C45.4029 34.3667 45.4529 34.25 45.5529 34.15C45.6529 34.05 45.7729 34 45.9129 34C46.0462 34 46.1629 34.05 46.2629 34.15C46.3629 34.25 46.4129 34.3667 46.4129 34.5C46.4129 34.64 46.3629 34.76 46.2629 34.86C46.1629 34.96 46.0462 35.01 45.9129 35.01ZM48.1929 40.22V41H47.9429C47.6362 41 47.3595 40.9333 47.1129 40.8C46.8729 40.66 46.6829 40.47 46.5429 40.23C46.1295 40.7167 45.5829 40.96 44.9029 40.96C44.5429 40.96 44.2129 40.87 43.9129 40.69C43.6129 40.5033 43.3729 40.2567 43.1929 39.95C43.0195 39.6367 42.9329 39.2967 42.9329 38.93V37.99C42.9329 37.61 43.0195 37.2667 43.1929 36.96C43.3729 36.6467 43.6162 36.4033 43.9229 36.23C44.2295 36.05 44.5729 35.96 44.9529 35.96H47.0929V39.36C47.0929 39.6133 47.1695 39.82 47.3229 39.98C47.4829 40.14 47.6895 40.22 47.9429 40.22H48.1929ZM46.3129 36.74H44.9529C44.5862 36.74 44.2862 36.8567 44.0529 37.09C43.8195 37.3233 43.7029 37.6233 43.7029 37.99V38.93C43.7029 39.1567 43.7562 39.3667 43.8629 39.56C43.9762 39.7467 44.1229 39.8967 44.3029 40.01C44.4895 40.1233 44.6895 40.18 44.9029 40.18C45.1895 40.18 45.4562 40.12 45.7029 40C45.9562 39.88 46.1595 39.7133 46.3129 39.5V36.74ZM52.0129 40.22V41H51.2229C51.0029 41 50.7963 40.95 50.6029 40.85C50.4163 40.75 50.2529 40.6133 50.1129 40.44C49.8396 40.8133 49.4463 41 48.9329 41H48.1229L47.7829 40.87V40.35L48.1229 40.22H48.9429C49.2029 40.22 49.3996 40.1467 49.5329 40C49.6663 39.8467 49.7363 39.6467 49.7429 39.4L49.7329 36.27H50.5129V39.38C50.5129 39.6267 50.5796 39.83 50.7129 39.99C50.8529 40.1433 51.0563 40.22 51.3229 40.22H52.0129ZM49.1929 41.92C49.3329 41.92 49.4496 41.97 49.5429 42.07C49.6429 42.17 49.6929 42.2867 49.6929 42.42C49.6929 42.56 49.6429 42.68 49.5429 42.78C49.4496 42.88 49.3329 42.93 49.1929 42.93C49.0596 42.93 48.9429 42.88 48.8429 42.78C48.7429 42.68 48.6929 42.56 48.6929 42.42C48.6929 42.2867 48.7429 42.17 48.8429 42.07C48.9429 41.97 49.0596 41.92 49.1929 41.92ZM50.8129 41.92C50.9463 41.92 51.0629 41.97 51.1629 42.07C51.2629 42.17 51.3129 42.2867 51.3129 42.42C51.3129 42.56 51.2629 42.68 51.1629 42.78C51.0629 42.88 50.9463 42.93 50.8129 42.93C50.6796 42.93 50.5629 42.88 50.4629 42.78C50.3629 42.68 50.3129 42.56 50.3129 42.42C50.3129 42.2867 50.3629 42.17 50.4629 42.07C50.5629 41.97 50.6796 41.92 50.8129 41.92ZM58.4225 40.22V41H51.9025L51.5625 40.87V40.35L51.9025 40.22H56.6225C56.5558 40.1733 56.4858 40.0767 56.4125 39.93C56.3391 39.7767 56.2325 39.5367 56.0925 39.21L55.8525 38.66C55.5525 38.0067 55.2091 37.5233 54.8225 37.21C54.4425 36.89 54.0125 36.73 53.5325 36.73C53.1991 36.73 52.8325 36.8067 52.4325 36.96V36.25C52.8325 36.0967 53.2225 36.02 53.6025 36.02C54.2291 36.02 54.8091 36.2333 55.3425 36.66C55.8825 37.0867 56.3358 37.7233 56.7025 38.57C56.9091 39.0767 57.0725 39.4433 57.1925 39.67C57.3191 39.8967 57.4225 40.04 57.5025 40.1C57.5825 40.1533 57.6891 40.19 57.8225 40.21V40.22H58.4225ZM54.6925 41.89C54.8258 41.89 54.9425 41.94 55.0425 42.04C55.1425 42.14 55.1925 42.2567 55.1925 42.39C55.1925 42.5233 55.1425 42.64 55.0425 42.74C54.9425 42.84 54.8258 42.89 54.6925 42.89C54.5525 42.89 54.4325 42.84 54.3325 42.74C54.2325 42.64 54.1825 42.5233 54.1825 42.39C54.1825 42.2567 54.2325 42.14 54.3325 42.04C54.4325 41.94 54.5525 41.89 54.6925 41.89ZM61.8069 35.96C62.1935 35.96 62.5402 36.05 62.8469 36.23C63.1535 36.4033 63.3935 36.6467 63.5669 36.96C63.7469 37.2667 63.8369 37.61 63.8369 37.99V38.93C63.8369 39.2967 63.7469 39.6367 63.5669 39.95C63.3935 40.2567 63.1569 40.5033 62.8569 40.69C62.5569 40.87 62.2269 40.96 61.8669 40.96C61.5335 40.96 61.2169 40.9 60.9169 40.78C60.6169 40.66 60.3569 40.4867 60.1369 40.26C60.0102 40.4867 59.8302 40.6667 59.5969 40.8C59.3702 40.9333 59.1135 41 58.8269 41H58.3869L58.0469 40.87V40.35L58.3869 40.22H58.8269C59.0802 40.22 59.2835 40.14 59.4369 39.98C59.5969 39.82 59.6769 39.6133 59.6769 39.36V37.99C59.6769 37.61 59.7635 37.2667 59.9369 36.96C60.1169 36.6467 60.3602 36.4033 60.6669 36.23C60.9802 36.05 61.3269 35.96 61.7069 35.96H61.8069ZM63.0669 37.99C63.0669 37.6233 62.9469 37.3233 62.7069 37.09C62.4735 36.8567 62.1735 36.74 61.8069 36.74H61.7069C61.3402 36.74 61.0402 36.8567 60.8069 37.09C60.5735 37.3233 60.4569 37.6233 60.4569 37.99V39.5C60.6102 39.7133 60.8102 39.88 61.0569 40C61.3035 40.12 61.5735 40.18 61.8669 40.18C62.0802 40.18 62.2769 40.1233 62.4569 40.01C62.6435 39.8967 62.7902 39.7467 62.8969 39.56C63.0102 39.3667 63.0669 39.1567 63.0669 38.93V37.99ZM67.8613 41H66.8613V41.22C66.8613 41.6 66.7713 41.9433 66.5913 42.25C66.418 42.5567 66.178 42.7967 65.8713 42.97C65.5646 43.1433 65.2213 43.23 64.8413 43.23H64.3413V42.46H64.8413C65.2013 42.46 65.498 42.3433 65.7313 42.11C65.9646 41.8833 66.0813 41.5867 66.0813 41.22V36.21H66.8613V40.22H67.8613V41ZM71.1821 40.22V41H70.5821C70.3688 41 70.1654 40.95 69.9721 40.85C69.7854 40.75 69.6221 40.6133 69.4821 40.44C69.2088 40.8133 68.8154 41 68.3021 41H67.7421L67.4021 40.87V40.35L67.7421 40.22H68.3021C68.5688 40.22 68.7688 40.1433 68.9021 39.99C69.0354 39.8367 69.1021 39.6333 69.1021 39.38V36.27H69.8821V39.38C69.8821 39.6267 69.9488 39.83 70.0821 39.99C70.2221 40.1433 70.4254 40.22 70.6921 40.22H71.1821ZM69.4721 42.04C69.6121 42.04 69.7288 42.09 69.8221 42.19C69.9221 42.29 69.9721 42.4067 69.9721 42.54C69.9721 42.68 69.9221 42.8 69.8221 42.9C69.7288 43 69.6121 43.05 69.4721 43.05C69.3388 43.05 69.2221 43 69.1221 42.9C69.0221 42.8 68.9721 42.68 68.9721 42.54C68.9721 42.4067 69.0221 42.29 69.1221 42.19C69.2221 42.09 69.3388 42.04 69.4721 42.04ZM72.9236 34.04V39.97C72.9236 40.2633 72.8236 40.51 72.6236 40.71C72.4302 40.9033 72.1869 41 71.8936 41H71.0236L70.6936 40.87V40.35L71.0236 40.22H71.6736C71.8002 40.22 71.9102 40.1767 72.0036 40.09C72.0969 40.0033 72.1436 39.8833 72.1436 39.73V34.04H72.9236ZM74.3517 41V34.04H75.1317V41H74.3517ZM79.3053 40.8C79.3053 41.1933 79.3886 41.5433 79.5553 41.85C79.7286 42.1567 79.9686 42.3933 80.2753 42.56C80.582 42.7333 80.9286 42.82 81.3153 42.82H81.3553C81.7486 42.82 82.0986 42.7333 82.4053 42.56C82.712 42.3933 82.952 42.1567 83.1253 41.85C83.2986 41.5433 83.3853 41.1933 83.3853 40.8V34.04H84.1653V40.8C84.1653 41.3267 84.042 41.8033 83.7953 42.23C83.5553 42.6567 83.2186 42.99 82.7853 43.23C82.3586 43.4767 81.882 43.6 81.3553 43.6H81.3153C80.7886 43.6 80.312 43.4767 79.8853 43.23C79.4653 42.99 79.1353 42.6567 78.8953 42.23C78.6553 41.8033 78.5353 41.3267 78.5353 40.8V38.76H79.3053V40.8ZM90.1515 41H89.5515V41.45C89.5515 42.0233 89.3648 42.46 88.9915 42.76C88.6181 43.0667 88.0681 43.22 87.3415 43.22C87.0215 43.22 86.6348 43.1833 86.1815 43.11V42.38C86.5948 42.4333 86.9381 42.46 87.2115 42.46C87.7715 42.46 88.1715 42.3633 88.4115 42.17C88.6515 41.9833 88.7715 41.69 88.7715 41.29V40.99H87.3415C86.9881 40.99 86.6615 40.8967 86.3615 40.71C86.0615 40.5233 85.8248 40.2767 85.6515 39.97C85.4781 39.6567 85.3915 39.32 85.3915 38.96V38C85.3915 37.62 85.4781 37.2733 85.6515 36.96C85.8315 36.6467 86.0748 36.4033 86.3815 36.23C86.6881 36.05 87.0348 35.96 87.4215 35.96H87.5215C87.9081 35.96 88.2548 36.05 88.5615 36.23C88.8681 36.4033 89.1081 36.6467 89.2815 36.96C89.4615 37.2733 89.5515 37.62 89.5515 38V40.22H90.1515V41ZM88.7715 40.21V38C88.7715 37.6333 88.6548 37.3333 88.4215 37.1C88.1881 36.86 87.8881 36.74 87.5215 36.74H87.4215C87.0548 36.74 86.7548 36.8567 86.5215 37.09C86.2881 37.3233 86.1715 37.6267 86.1715 38V38.96C86.1715 39.1867 86.2248 39.3967 86.3315 39.59C86.4381 39.7767 86.5815 39.9267 86.7615 40.04C86.9481 40.1533 87.1481 40.21 87.3615 40.21H88.7715ZM93.2158 40.22V41H92.7558C92.5425 41 92.3392 40.95 92.1458 40.85C91.9592 40.75 91.7958 40.6167 91.6558 40.45C91.3825 40.8167 90.9892 41 90.4758 41H90.0858V40.99L89.7558 40.87V40.35L90.0858 40.23V40.22H90.4858C90.7458 40.22 90.9425 40.1433 91.0758 39.99C91.2158 39.8367 91.2858 39.6367 91.2858 39.39L91.2758 34.04H92.0658V39.12C92.0658 39.22 92.0625 39.2933 92.0558 39.34V39.38C92.0558 39.6267 92.1225 39.83 92.2558 39.99C92.3958 40.1433 92.5992 40.22 92.8658 40.22H93.2158ZM99.6927 40.22V41H93.1727L92.8327 40.87V40.35L93.1727 40.22H97.8927C97.826 40.1733 97.756 40.0767 97.6827 39.93C97.6094 39.7767 97.5027 39.5367 97.3627 39.21L97.1227 38.66C96.8227 38.0067 96.4794 37.5233 96.0927 37.21C95.7127 36.89 95.2827 36.73 94.8027 36.73C94.4694 36.73 94.1027 36.8067 93.7027 36.96V36.25C94.1027 36.0967 94.4927 36.02 94.8727 36.02C95.4994 36.02 96.0794 36.2333 96.6127 36.66C97.1527 37.0867 97.606 37.7233 97.9727 38.57C98.1794 39.0767 98.3427 39.4433 98.4627 39.67C98.5894 39.8967 98.6927 40.04 98.7727 40.1C98.8527 40.1533 98.9594 40.19 99.0927 40.21V40.22H99.6927ZM102.776 40.22V41H102.316C102.103 41 101.9 40.95 101.706 40.85C101.52 40.75 101.356 40.6167 101.216 40.45C100.943 40.8167 100.55 41 100.036 41H99.6464V40.99L99.3164 40.87V40.35L99.6464 40.23V40.22H100.046C100.306 40.22 100.503 40.1433 100.636 39.99C100.776 39.8367 100.846 39.6367 100.846 39.39L100.836 34.04H101.626V39.12C101.626 39.22 101.623 39.2933 101.616 39.34V39.38C101.616 39.6267 101.683 39.83 101.816 39.99C101.956 40.1433 102.16 40.22 102.426 40.22H102.776ZM104.603 34.04V39.97C104.603 40.2633 104.503 40.51 104.303 40.71C104.11 40.9033 103.867 41 103.573 41H102.703L102.373 40.87V40.35L102.703 40.22H103.353C103.48 40.22 103.59 40.1767 103.683 40.09C103.777 40.0033 103.823 39.8833 103.823 39.73V34.04H104.603Z" fill="white"/>
<g clip-path="url(#clip0_7_1366)">
<path d="M133.789 46.9805C132.176 46.9997 130.565 46.8489 128.983 46.5305C128.856 46.722 128.685 46.8803 128.485 46.9923C128.285 47.1043 128.06 47.1667 127.831 47.1742C127.452 47.1886 127.083 47.052 126.804 46.7943C126.526 46.5367 126.361 46.1792 126.346 45.8001C126.346 45.8001 126.346 45.8002 126.346 45.7958C124.668 45.2029 123.094 44.3471 121.685 43.2603C121.599 43.2867 121.509 43.3016 121.419 43.3047C121.15 43.3141 120.888 43.2169 120.691 43.0341C120.493 42.8513 120.376 42.5978 120.364 42.3289C120.362 42.2629 120.366 42.1968 120.377 42.1316C119.231 41.0389 118.259 39.7765 117.496 38.3887C117.22 38.3807 116.957 38.2679 116.76 38.0733C116.563 37.8786 116.448 37.6166 116.437 37.3402C116.427 37.0839 116.51 36.8326 116.669 36.6316C115.989 34.8828 115.576 33.0418 115.444 31.1703C115.151 31.0895 114.892 30.9176 114.704 30.6795C114.516 30.4415 114.408 30.1497 114.397 29.8464C114.387 29.5369 114.478 29.2325 114.656 28.9792C114.834 28.7259 115.09 28.5375 115.385 28.4425C115.485 26.0356 115.826 23.6448 116.405 21.3063C116.047 23.645 115.906 26.0116 115.982 28.3762C116.325 28.4104 116.645 28.5677 116.881 28.8191C117.118 29.0704 117.255 29.3989 117.268 29.7438C117.28 30.0632 117.184 30.3773 116.996 30.6357C116.808 30.8941 116.538 31.0819 116.231 31.1688C116.465 32.9024 116.92 34.599 117.585 36.2173C117.859 36.2289 118.118 36.3433 118.312 36.5376C118.505 36.7318 118.619 36.9918 118.63 37.2658C118.638 37.5074 118.565 37.745 118.423 37.9402C119.122 39.1938 119.995 40.3428 121.015 41.3531C121.121 41.3122 121.234 41.2893 121.348 41.2854C121.617 41.2759 121.879 41.3732 122.077 41.556C122.274 41.7388 122.392 41.9923 122.403 42.2612C122.407 42.3573 122.396 42.4534 122.372 42.5466C123.661 43.5414 125.083 44.3503 126.597 44.9496C126.724 44.7647 126.893 44.6124 127.091 44.5048C127.288 44.3971 127.507 44.3373 127.732 44.33C128.111 44.3154 128.481 44.4519 128.759 44.7096C129.038 44.9673 129.202 45.3249 129.217 45.704C129.217 45.7382 129.217 45.7732 129.217 45.8067C130.708 46.1871 132.23 46.4345 133.765 46.5458C133.804 46.3377 133.913 46.1491 134.074 46.0113C134.235 45.8734 134.438 45.7946 134.65 45.7877C134.886 45.7788 135.117 45.8603 135.295 46.0156C135.473 46.1709 135.586 46.3884 135.609 46.6237C136.524 46.6404 137.439 46.5998 138.349 46.5021C137.442 46.701 136.521 46.8343 135.594 46.9012C135.55 47.1042 135.44 47.2867 135.281 47.4197C135.121 47.5527 134.922 47.6286 134.714 47.6352H134.682C134.482 47.6358 134.288 47.5725 134.128 47.4546C133.967 47.3368 133.849 47.1707 133.789 46.9805ZM136.338 10.0027C139.161 10.4806 141.842 11.582 144.185 13.2265C146.529 14.871 148.476 17.0173 149.885 19.5092C155.583 29.4969 150.54 41.4216 140.831 45.7863C140.835 45.7871 131.706 37.1064 136.338 10.0035L136.338 10.0027ZM138.378 45.3727C138.339 45.3727 136.658 44.4836 133.95 42.8925C127.547 39.1322 123.462 36.0119 120.269 32.1686C119.039 30.6203 118.149 28.83 117.658 26.9146C117.167 24.9993 117.086 23.0019 117.419 21.0529C118.158 18.2884 119.689 15.8002 121.824 13.8948C123.96 11.9894 126.605 10.7499 129.436 10.329L124.702 13.8315L126.653 18.7475L129.591 16.2462C131.837 40.5092 138.383 45.3734 138.383 45.3734L138.378 45.3727ZM136.568 8.74516L137.354 4.51372L133.875 7.1104C133.607 6.7551 133.397 6.35936 133.253 5.93804C133.105 5.50195 133.029 5.04433 133.03 4.58363C133.03 4.29792 133.059 4.01293 133.116 3.73309C133.172 3.46145 133.255 3.19605 133.364 2.94082C133.471 2.68987 133.602 2.44994 133.756 2.22433C133.909 2.00001 134.083 1.79077 134.275 1.59952C134.468 1.40808 134.679 1.23544 134.904 1.08397C135.132 0.931374 135.374 0.801154 135.627 0.69512C135.885 0.586975 136.154 0.504526 136.428 0.448985C136.709 0.393414 136.994 0.365868 137.28 0.366718C137.568 0.366733 137.855 0.395504 138.137 0.45263C138.412 0.508171 138.68 0.59062 138.939 0.698764C139.191 0.804815 139.433 0.935034 139.661 1.08761C139.887 1.23907 140.097 1.41171 140.29 1.60317C140.483 1.7944 140.657 2.00364 140.81 2.22797C140.963 2.45355 141.094 2.69348 141.201 2.94446C141.31 3.19967 141.393 3.46508 141.449 3.73674C141.507 4.01658 141.536 4.30157 141.536 4.58727C141.536 4.87298 141.507 5.15793 141.449 5.43777C141.393 5.70943 141.31 5.97484 141.201 6.23004C141.094 6.48101 140.963 6.72099 140.81 6.94657C140.657 7.17091 140.483 7.3801 140.29 7.57133C140.097 7.76281 139.887 7.93545 139.661 8.08689C139.433 8.2394 139.191 8.36962 138.939 8.47574C138.68 8.5839 138.412 8.66635 138.137 8.72187C137.855 8.77898 137.568 8.80775 137.28 8.80778C137.041 8.80762 136.802 8.78767 136.566 8.74809L136.568 8.74516Z" fill="white"/>
</g>
<defs>
<clipPath id="clip0_7_1366">
<rect width="38.6754" height="48" fill="white" transform="translate(114.033)"/>
</clipPath>
</defs>
</svg>
