<svg width="20" height="20" viewBox="0 0 20 20" fill="none" xmlns="http://www.w3.org/2000/svg">
<g clip-path="url(#clip0_48_3752)">
<path fill-rule="evenodd" clip-rule="evenodd" d="M3.37947 3.37947C3.80924 2.94969 4.39213 2.70825 4.99992 2.70825H11.6666C12.2744 2.70825 12.8573 2.94969 13.287 3.37947C13.7168 3.80924 13.9583 4.39213 13.9583 4.99992V6.04159H14.9999C15.6077 6.04159 16.1906 6.28303 16.6204 6.7128C17.0501 7.14257 17.2916 7.72546 17.2916 8.33325V14.9999C17.2916 15.6077 17.0501 16.1906 16.6204 16.6204C16.1906 17.0501 15.6077 17.2916 14.9999 17.2916H8.33325C7.72546 17.2916 7.14257 17.0501 6.7128 16.6204C6.28303 16.1906 6.04159 15.6077 6.04159 14.9999V13.9583H4.99992C4.39213 13.9583 3.80924 13.7168 3.37947 13.287C2.94969 12.8573 2.70825 12.2744 2.70825 11.6666V4.99992C2.70825 4.39213 2.94969 3.80924 3.37947 3.37947ZM7.29158 14.9999C7.29158 15.2762 7.40133 15.5411 7.59668 15.7365C7.79203 15.9318 8.05698 16.0416 8.33325 16.0416H14.9999C15.2762 16.0416 15.5411 15.9318 15.7365 15.7365C15.9318 15.5411 16.0416 15.2762 16.0416 14.9999V8.33325C16.0416 8.05698 15.9318 7.79203 15.7365 7.59668C15.5411 7.40133 15.2762 7.29158 14.9999 7.29158H8.33325C8.05698 7.29158 7.79203 7.40133 7.59668 7.59668C7.40133 7.79203 7.29158 8.05698 7.29158 8.33325V14.9999ZM12.7083 6.04159H8.33325C7.72546 6.04159 7.14257 6.28303 6.7128 6.7128C6.28303 7.14257 6.04159 7.72546 6.04159 8.33325V12.7083H4.99992C4.72365 12.7083 4.4587 12.5985 4.26335 12.4032C4.068 12.2078 3.95825 11.9429 3.95825 11.6666V4.99992C3.95825 4.72365 4.068 4.4587 4.26335 4.26335C4.4587 4.068 4.72365 3.95825 4.99992 3.95825H11.6666C11.9429 3.95825 12.2078 4.068 12.4032 4.26335C12.5985 4.4587 12.7083 4.72365 12.7083 4.99992V6.04159Z" fill="#357DC0"/>
</g>
<defs>
<clipPath id="clip0_48_3752">
<rect width="20" height="20" fill="white"/>
</clipPath>
</defs>
</svg>
