<svg width="20" height="20" viewBox="0 0 20 20" fill="none" xmlns="http://www.w3.org/2000/svg">
<g clip-path="url(#clip0_42_2582)">
<path d="M7.5 9.16675C7.5 9.82979 7.76339 10.4657 8.23223 10.9345C8.70107 11.4034 9.33696 11.6667 10 11.6667C10.663 11.6667 11.2989 11.4034 11.7678 10.9345C12.2366 10.4657 12.5 9.82979 12.5 9.16675C12.5 8.50371 12.2366 7.86782 11.7678 7.39898C11.2989 6.93014 10.663 6.66675 10 6.66675C9.33696 6.66675 8.70107 6.93014 8.23223 7.39898C7.76339 7.86782 7.5 8.50371 7.5 9.16675Z" stroke="#3E474E" stroke-opacity="0.6" stroke-width="1.25" stroke-linecap="round" stroke-linejoin="round"/>
<path d="M14.7141 13.8808L11.1783 17.4167C10.8657 17.7289 10.4421 17.9042 10.0003 17.9042C9.5586 17.9042 9.13493 17.7289 8.82242 17.4167L5.28576 13.8808C4.35344 12.9485 3.71853 11.7606 3.46133 10.4674C3.20412 9.17419 3.33616 7.83376 3.84076 6.61561C4.34535 5.39745 5.19984 4.35628 6.29616 3.62376C7.39248 2.89123 8.68139 2.50024 9.99992 2.50024C11.3184 2.50024 12.6074 2.89123 13.7037 3.62376C14.8 4.35628 15.6545 5.39745 16.1591 6.61561C16.6637 7.83376 16.7957 9.17419 16.5385 10.4674C16.2813 11.7606 15.6464 12.9485 14.7141 13.8808Z" stroke="#3E474E" stroke-opacity="0.6" stroke-width="1.25" stroke-linecap="round" stroke-linejoin="round"/>
</g>
<defs>
<clipPath id="clip0_42_2582">
<rect width="20" height="20" fill="white"/>
</clipPath>
</defs>
</svg>
