<svg width="20" height="20" viewBox="0 0 20 20" fill="none" xmlns="http://www.w3.org/2000/svg">
<g clip-path="url(#clip0_42_2598)">
<path d="M16.2501 5.83335C15.5636 4.80584 14.6338 3.96389 13.5434 3.38235C12.453 2.80082 11.2358 2.49772 10.0001 2.50001C8.76646 2.49926 7.55173 2.80312 6.46375 3.38461C5.37578 3.96611 4.44821 4.80725 3.76341 5.83335M9.58341 2.50001C8.93394 3.54052 8.42243 4.66101 8.06175 5.83335M10.4167 2.50001C11.0668 3.54043 11.5789 4.66093 11.9401 5.83335M16.2501 14.1667C15.5636 15.1942 14.6338 16.0361 13.5434 16.6177C12.453 17.1992 11.2358 17.5023 10.0001 17.5C8.76646 17.5008 7.55173 17.1969 6.46375 16.6154C5.37578 16.0339 4.44821 15.1928 3.76341 14.1667M9.58341 17.5C8.93394 16.4595 8.42243 15.339 8.06175 14.1667M10.4167 17.5C11.0668 16.4596 11.5789 15.3391 11.9401 14.1667M1.66675 8.33335L2.50008 11.6667L3.75008 8.33335L5.00008 11.6667L5.83341 8.33335M14.1667 8.33335L15.0001 11.6667L16.2501 8.33335L17.5001 11.6667L18.3334 8.33335M7.91675 8.33335L8.75008 11.6667L10.0001 8.33335L11.2501 11.6667L12.0834 8.33335" stroke="#3E474E" stroke-opacity="0.6" stroke-width="1.25" stroke-linecap="round" stroke-linejoin="round"/>
</g>
<defs>
<clipPath id="clip0_42_2598">
<rect width="20" height="20" fill="white"/>
</clipPath>
</defs>
</svg>
